<svg xmlns="http://www.w3.org/2000/svg" viewBox="0 0 612.28 612.28"><defs><style>.\35 0c228ef-1fa2-458f-97b1-c3492bb40f0b{fill:#fff;}.\35 b76aba1-234d-4204-aaa9-408569b31fac,.ba90c060-7962-47e4-b1e7-6e7862d027c3{fill:none;stroke:#000;stroke-linecap:round;stroke-miterlimit:10;}.ba90c060-7962-47e4-b1e7-6e7862d027c3{stroke-width:6px;}.\35 b76aba1-234d-4204-aaa9-408569b31fac{stroke-width:9px;}</style></defs><title>2020-kleurboek-print</title><g id="a44f3a60-1223-498d-8fbb-1ff1360a9152" data-name="Monitor"><path d="M306.11,96.38c.83,0,1.67,0,2.5,0a149.35,149.35,0,0,1,117.76,238,51.18,51.18,0,0,0-10.11,30.36V485.42a30.57,30.57,0,0,1-30.48,30.48H226.51A30.56,30.56,0,0,1,196,485.42V364.84a50.35,50.35,0,0,0-9.82-30.09A149.35,149.35,0,0,1,306.11,96.38m0-8A157.35,157.35,0,0,0,179.79,339.52,42.69,42.69,0,0,1,188,364.84V485.42a38.52,38.52,0,0,0,38.48,38.48H385.78a38.53,38.53,0,0,0,38.48-38.48V364.71a42.91,42.91,0,0,1,8.54-25.61A157.35,157.35,0,0,0,308.74,88.4c-.88,0-1.75,0-2.63,0Z"/><circle cx="306.14" cy="245.73" r="128.08"/><path d="M306.14,121.65A124.07,124.07,0,1,1,218.4,158a123.27,123.27,0,0,1,87.74-36.34m0-8A132.08,132.08,0,1,0,438.22,245.73,132.07,132.07,0,0,0,306.14,113.65Z"/><circle class="50c228ef-1fa2-458f-97b1-c3492bb40f0b" cx="306.14" cy="283.24" r="21.24" transform="translate(-85.09 138.72) rotate(-22.5)"/><path d="M306.14,268a15.24,15.24,0,1,1-15.24,15.24A15.24,15.24,0,0,1,306.14,268m0-12a27.24,27.24,0,1,0,27.24,27.24A27.27,27.27,0,0,0,306.14,256Z"/><path d="M306.14,449a5.09,5.09,0,0,1,5.08,5.08v14.23a5.08,5.08,0,0,1-10.16,0V454.05a5.1,5.1,0,0,1,5.08-5.08m0-6a11.1,11.1,0,0,0-11.08,11.08v14.23a11.08,11.08,0,0,0,22.16,0V454.05A11.1,11.1,0,0,0,306.14,443Z"/><path class="ba90c060-7962-47e4-b1e7-6e7862d027c3" d="M196.07,430.69a30.48,30.48,0,1,1,0,61"/><circle cx="202.99" cy="461.18" r="3.05"/><circle cx="212.79" cy="461.18" r="3.05"/><circle cx="212.79" cy="451.86" r="3.05"/><circle cx="212.79" cy="470.5" r="3.05"/><circle cx="202.99" cy="451.86" r="3.05"/><circle cx="202.99" cy="470.5" r="3.05"/><circle cx="202.99" cy="479.82" r="3.05"/><circle cx="203.17" cy="442.54" r="3.05"/><path class="ba90c060-7962-47e4-b1e7-6e7862d027c3" d="M416.33,491.65a30.48,30.48,0,1,1,0-61"/><circle cx="409.41" cy="461.15" r="3.05"/><circle cx="399.62" cy="461.15" r="3.05"/><circle cx="399.62" cy="470.47" r="3.05"/><circle cx="399.62" cy="451.83" r="3.05"/><circle cx="409.41" cy="470.47" r="3.05"/><circle cx="409.41" cy="451.83" r="3.05"/><circle cx="409.41" cy="442.51" r="3.05"/><circle cx="409.23" cy="479.79" r="3.05"/><line class="5b76aba1-234d-4204-aaa9-408569b31fac" x1="208.87" y1="514.04" x2="402.85" y2="514.04"/><line class="ba90c060-7962-47e4-b1e7-6e7862d027c3" x1="194.38" y1="408.29" x2="417.9" y2="408.29"/></g></svg>