<svg xmlns="http://www.w3.org/2000/svg" viewBox="0 0 612.28 612.28"><defs><style>.\32 88c950e-64b0-4bfc-a1d7-d3fe5fe0a0c9,.\39 411871f-e023-4162-b32a-9bf708a2ff93,.a0fdb37e-935d-40ed-b5c3-3cfdfec90311{fill:#fff;}.\32 88c950e-64b0-4bfc-a1d7-d3fe5fe0a0c9,.\39 411871f-e023-4162-b32a-9bf708a2ff93{stroke:#000;stroke-miterlimit:10;stroke-width:6px;}.\39 411871f-e023-4162-b32a-9bf708a2ff93{stroke-linecap:round;}</style></defs><title>2020-kleurboek-print</title><g id="4dccd3db-3fd3-4ff3-a416-464f8756a43a" data-name="Doll"><path class="a0fdb37e-935d-40ed-b5c3-3cfdfec90311" d="M331.93,518.4c-3.16,0-13.8-.39-18.18-5.49-4.83-5.62-9.81-21.1-6.53-62.76-1.34,0-2.68.05-4,.05-4.73,0-9.47-.21-14.14-.62,3.38,42.06-1.62,57.66-6.49,63.33-4.38,5.1-15,5.49-18.18,5.49-6.66,0-15.18-1.4-19.13-5.35-12.58-12.58-4-61.26-1.16-75.18-13.76-6.83-23.08-16-27-26.67l-.29-.78.24-.8c2.56-8.62,5.08-19.35,7.68-32.73-7.84-1.23-13.52-5.68-14.79-11.8-3.37-16.29-.53-38.47,4.78-66.75,4.53-24.1,10.41-42,18-54.73-3.78-9-7.68-22.17-6.14-36.2,2.28-20.7,13.71-83.9,35.62-102.21,9-7.52,21-11.32,35.62-11.32a101,101,0,0,1,39.93,8.7c35,16.29,41.92,54.26,43.25,69.83.43,5,.51,12.06.59,19.53.11,9.89.22,20.13,1.16,26.51,3,20.84,15.69,64.32,22,80.57,2.89,7.41,1.49,11.9-.2,14.37-2.09,3.05-5.83,4.81-10.28,4.81h-.62c.13,1.27.24,2.47.32,3.61,1.12,14.27,2,33.36,0,43.29-1.14,5.53-6.8,8.69-15.51,8.69h-.18c3.66,12.9,7.53,27.27,9,42.35l.1,1-.57.77c-7.4,10.06-19.07,18.3-33.83,23.91,3.54,19.18,9.43,59.94-1.91,71.28C347.11,517,338.59,518.4,331.93,518.4Z"/><path d="M297.77,96.38a98.27,98.27,0,0,1,38.87,8.46c31.76,14.77,40.15,48.33,41.82,67.79,1,11.51.1,34.75,1.76,46.19,3,20.8,15.69,64.47,22.18,81.11,4.41,11.31-1.66,15.77-8.15,15.77a14.93,14.93,0,0,1-3.45-.41c.28,2.4.5,4.65.66,6.7.83,10.62,2.16,32.17,0,42.59-1,4.84-6.78,6.7-13.06,6.7a35.16,35.16,0,0,1-3.55-.18c4.2,14.7,8.34,29.43,9.93,45.28-7.9,10.76-20.22,18.62-34.66,23.77,2.68,14.06,10.4,59.91-.82,71.13-3,3-10.27,4.62-17.37,4.62-6.86,0-13.59-1.49-16.28-4.62-8.92-10.38-7.28-45.34-5.71-63.72-2.24.09-4.49.14-6.73.14a160,160,0,0,1-16.88-.89c1.59,18.16,3.39,53.95-5.64,64.47-2.7,3.13-9.43,4.62-16.29,4.62-7.1,0-14.34-1.6-17.36-4.62-12.66-12.66-1.23-69.36-.09-74.81-13.35-6.27-23.41-15.05-27.51-26.14,3.05-10.29,5.74-22.48,8.25-35.64-7.18-.39-14-3.85-15.31-10.11-3.35-16.14-.24-39,4.79-65.78,4.44-23.64,10.27-42,18.31-55-4-9.14-8-22.23-6.47-36.12,2.52-22.89,14.33-83.51,34.74-100.57,9.48-7.92,21.81-10.73,34-10.73m0-5c-15.25,0-27.78,4-37.23,11.9C238,122.11,226.35,186.18,224,207.13c-1.53,14,2.11,27.08,5.85,36.29-7.4,12.88-13.18,30.74-17.64,54.46-5.36,28.57-8.22,51-4.77,67.72,1.34,6.47,6.74,11.33,14.31,13.24-2.42,12.18-4.77,22.05-7.15,30.07l-.47,1.6.58,1.56c4,10.8,13.13,20.14,26.55,27.17-1.2,6.28-3.35,18.59-4.46,31.5a139.6,139.6,0,0,0-.29,24.76c.88,9.2,3.16,15.52,6.95,19.31,5.65,5.65,17.43,6.09,20.9,6.09,4.39,0,15.14-.62,20.08-6.36,4.76-5.55,7.38-16.16,8-32.44a282.42,282.42,0,0,0-.71-29.8c3.79.27,7.62.4,11.43.4h1.31a277.93,277.93,0,0,0-.65,29.94c.66,16,3.27,26.42,8,31.91,4.94,5.74,15.69,6.36,20.08,6.36,3.47,0,15.25-.44,20.9-6.09,5.94-5.93,8.25-18.47,7.08-38.33a296.69,296.69,0,0,0-4.12-33.13c14.31-5.76,25.67-14,33-24l1.14-1.55-.19-1.91c-1.42-14.11-4.86-27.54-8.28-39.73,8.17-.76,13.64-4.58,14.88-10.55,2.11-10.22,1.21-29.57.09-44q0-.5-.09-1a14,14,0,0,0,10.24-5.78c2-3,3.74-8.26.46-16.68-6.3-16.16-18.88-59.34-21.89-80-.91-6.22-1-16.37-1.13-26.18-.09-7.51-.16-14.61-.6-19.71-1.37-16-8.46-55-44.69-71.89a103.65,103.65,0,0,0-41-8.93Z"/><path d="M270.08,128.92a30.49,30.49,0,0,0-3.53,6.8c-2.4,6.88-1.3,12.92-.88,15.75,2.55,17.15-4.29,19.64-1,33.53a46,46,0,0,0,13.74,23.06c3,2.63,11.64,10.08,24.82,10.71,13.66.66,23.21-6.41,27-9.2s13-10.49,16.76-23.19c2.06-6.94.39-8.34,1.27-24.07,1.08-19.53,3.82-20.36,2.14-25.2C342.66,115,279.54,115.71,270.08,128.92Z"/><path class="288c950e-64b0-4bfc-a1d7-d3fe5fe0a0c9" d="M349.3,436s13.3,61.94,0,75.24c-5.95,6-28.17,6.38-33.65,0C303.37,497,311.11,436,311.11,436Z"/><path class="288c950e-64b0-4bfc-a1d7-d3fe5fe0a0c9" d="M242.37,256.58s-16.19-23.09-13.36-48.9c2.52-22.89,14.33-83.51,34.74-100.57,21.11-17.64,56.36-10,72.89-2.27,31.76,14.77,40.15,48.33,41.82,67.79,1,11.51.1,34.75,1.76,46.19,3,20.8,15.69,64.47,22.18,81.11,9.83,25.21-24.67,16.39-26.69,0C371.43,265.14,242.37,256.58,242.37,256.58Z"/><path class="288c950e-64b0-4bfc-a1d7-d3fe5fe0a0c9" d="M247,436s-13.3,61.94,0,75.24c6,6,28.16,6.38,33.65,0C293,497,285.22,436,285.22,436Z"/><path class="288c950e-64b0-4bfc-a1d7-d3fe5fe0a0c9" d="M250.44,253.43c-12.27,43.18-18.69,115.41-31,156.9,16.63,45,131.45,52.18,165.34,6.05-4.91-48.76-33.89-87-14.49-146.32,2.18-6.68-6-11.72-9.07-17.76C333.15,261.7,278.5,244,250.44,253.43Z"/><path class="9411871f-e023-4162-b32a-9bf708a2ff93" d="M264.43,264c-16.76,33.39-12.54,76.14-18.77,100.56-3.56,14-30.57,13.1-33.28,0-3.35-16.14-.24-39,4.79-65.78,6.55-34.91,16.15-58.31,31.38-70,9.15-7,27.85-2,33.65-8.42,3.46-3.84,0-20.69,0-20.69H332s-3.71,18.15,0,22.31c5.25,5.88,24.72,2.86,30.4,8.32C379.69,247,389.59,298,391.46,322c.83,10.62,2.16,32.17,0,42.59-2.27,11-29.1,6.66-30.6,0-5.26-23.34-4.78-77.34-16.5-104"/><circle class="288c950e-64b0-4bfc-a1d7-d3fe5fe0a0c9" cx="261" cy="170.98" r="8.6"/><circle class="288c950e-64b0-4bfc-a1d7-d3fe5fe0a0c9" cx="348.86" cy="170.98" r="8.6"/><path class="9411871f-e023-4162-b32a-9bf708a2ff93" d="M279.22,124.82c2.22,21.42,38.6,30.77,67.64,29.73v19a8.49,8.49,0,0,1-.05.88c0,.61.05,1.23.05,1.85,0,24.37-18.77,44.13-41.93,44.13S263,200.67,263,176.3c0-.62,0-1.24.05-1.85a8.49,8.49,0,0,1-.05-.88V154.5c14.68-.69,16.22-29.68,16.22-29.68"/></g></svg>