<svg xmlns="http://www.w3.org/2000/svg" viewBox="0 0 612.28 612.28"><defs><style>.a16a7fa3-abce-49f5-8d0c-1fb6ab20cf3a,.b843b028-de54-4ed8-93e2-a3b71897cdba{fill:none;}.\36 b139133-6ebb-4fa7-b7d6-2acca4887b01,.a16a7fa3-abce-49f5-8d0c-1fb6ab20cf3a,.b843b028-de54-4ed8-93e2-a3b71897cdba{stroke:#000;stroke-linejoin:round;}.a16a7fa3-abce-49f5-8d0c-1fb6ab20cf3a{stroke-width:12px;}.\36 b139133-6ebb-4fa7-b7d6-2acca4887b01,.b843b028-de54-4ed8-93e2-a3b71897cdba{stroke-width:6px;}.\36 b139133-6ebb-4fa7-b7d6-2acca4887b01{stroke-linecap:round;}.de4fc632-d940-4f6d-ac69-f29796f3b841{fill:#fff;}</style></defs><title>doorbell</title><g id="f92c2763-4077-447e-928f-48c728d3bdd1" data-name="ring"><path d="M407.23,96.38V515.19H203.8V96.38H407.23m0-8H203.8a8,8,0,0,0-8,8V515.19a8,8,0,0,0,8,8H407.23a8,8,0,0,0,8-8V96.38a8,8,0,0,0-8-8Z"/><line class="a16a7fa3-abce-49f5-8d0c-1fb6ab20cf3a" x1="200.68" y1="246.77" x2="411.61" y2="246.77"/><path d="M305.52,344.15a40.12,40.12,0,1,1-40.12,40.12,40.12,40.12,0,0,1,40.12-40.12m0-6a46.12,46.12,0,1,0,46.12,46.12,46.17,46.17,0,0,0-46.12-46.12Z"/><path d="M305.52,358.34a25.93,25.93,0,1,1-25.93,25.93,26,26,0,0,1,25.93-25.93m0-6a31.93,31.93,0,1,0,31.92,31.93,31.94,31.94,0,0,0-31.92-31.93Z"/><line class="b843b028-de54-4ed8-93e2-a3b71897cdba" x1="237.24" y1="515.9" x2="237.24" y2="246.77"/><line class="b843b028-de54-4ed8-93e2-a3b71897cdba" x1="373.8" y1="515.9" x2="373.8" y2="246.77"/><rect class="6b139133-6ebb-4fa7-b7d6-2acca4887b01" x="203.8" y="96.38" width="203.43" height="150.4"/><circle class="de4fc632-d940-4f6d-ac69-f29796f3b841" cx="305.52" cy="208.06" r="4.99"/><circle class="de4fc632-d940-4f6d-ac69-f29796f3b841" cx="305.52" cy="201.02" r="11.97"/></g></svg>