<svg id="0cb71aeb-eeff-4d60-a88c-98b9a5342d20" data-name="Ring" xmlns="http://www.w3.org/2000/svg" viewBox="0 0 612.28 612.29"><defs><style>.\35 b7b3968-4359-4c52-a229-790cff215585,.f3cb937f-59e8-428e-be5c-820a0a85e3f6{fill:#fff;}.f3cb937f-59e8-428e-be5c-820a0a85e3f6{stroke:#000;stroke-linecap:round;stroke-miterlimit:10;stroke-width:6px;}</style></defs><title>2020-kleurboek-print</title><rect class="5b7b3968-4359-4c52-a229-790cff215585" x="265.07" y="230.13" width="81.91" height="169.33" rx="15" ry="15"/><path d="M332,233.13a12,12,0,0,1,12,12V384.46a12,12,0,0,1-12,12H280.07a12,12,0,0,1-12-12V245.13a12,12,0,0,1,12-12H332m0-6H280.07a18,18,0,0,0-18,18V384.46a18,18,0,0,0,18,18H332a18,18,0,0,0,18-18V245.13a18,18,0,0,0-18-18Z"/><path class="5b7b3968-4359-4c52-a229-790cff215585" d="M428.4,450.57a23.89,23.89,0,0,1-19.57-10.09l-.63.78-2.27-5.41a75.21,75.21,0,0,0-9-15.9,59.73,59.73,0,0,0-7.78-8.88c-1-.9-1.53-1.33-8.36-6.68l-6.13-4.8-2-1.58c-3.43-2.65-6.61-5-11.31-8.48-10.77-7.88-16.18-11.84-22-15.58-4.57-2.92-6.86-4.39-9.24-5.61-8.83-4.56-17.49-7.07-24.39-7.07s-15.55,2.51-24.39,7.07c-2.37,1.22-4.67,2.69-9.24,5.61-5.85,3.74-11.25,7.7-22,15.58-4.72,3.45-7.9,5.83-11.33,8.48l-2.05,1.6-6.11,4.79c-6.83,5.34-7.37,5.77-8.36,6.68a58.5,58.5,0,0,0-7.77,8.87,74.81,74.81,0,0,0-9.05,15.9l-2.26,5.41-.63-.79A24,24,0,1,1,179,402.91a84.33,84.33,0,0,0,8.9-5.36,63.73,63.73,0,0,0,11.39-9.39c1-1,3.56-4.34,8.27-10.37,1.31-1.67,2.18-2.8,4.88-6.28L221,360.45c5.38-7.07,10.81-14.91,15.68-22.67,2.94-4.68,4.41-7,5.51-9.19,4.3-8.44,6.75-16.58,6.9-22.91.13-5.52-2.45-14-6.9-22.75-1.1-2.17-2.57-4.52-5.51-9.19-4.87-7.77-10.3-15.61-15.68-22.68L212.42,240c-2.7-3.48-3.57-4.61-4.88-6.28-4.71-6-7.31-9.34-8.27-10.37A63.73,63.73,0,0,0,187.88,214a85.69,85.69,0,0,0-7.89-4.82,24,24,0,1,1,26.72-30.34,75.66,75.66,0,0,0,7.65,12.76,58.49,58.49,0,0,0,7.77,8.88c1,.9,1.53,1.33,8.35,6.67l6.11,4.79,2.06,1.61c3.43,2.65,6.61,5,11.32,8.47,10.78,7.89,16.17,11.85,22,15.58,4.57,2.92,6.87,4.39,9.24,5.61,8.84,4.56,17.5,7.08,24.39,7.08s15.56-2.52,24.39-7.08c2.38-1.22,4.67-2.69,9.24-5.61,5.85-3.73,11.25-7.69,22-15.56,4.74-3.47,7.91-5.84,11.34-8.49l2-1.59,6.12-4.8c6.83-5.35,7.38-5.78,8.36-6.68a59.23,59.23,0,0,0,7.78-8.88,75.21,75.21,0,0,0,9-15.9l2.27-5.41,1.27,1.57a24,24,0,0,1,43.73,13.62,23.87,23.87,0,0,1-22.36,23.93,83.46,83.46,0,0,0-7.47,4.59A63.73,63.73,0,0,0,412,223.35c-1,1-3.56,4.35-8.28,10.37L398.82,240l-8.57,11.06c-5.38,7.07-10.8,14.91-15.67,22.67-2.94,4.68-4.42,7-5.52,9.2a67.51,67.51,0,0,0-6.87,22.83,67.65,67.65,0,0,0,6.87,22.83c1.1,2.16,2.58,4.51,5.52,9.19,4.87,7.76,10.29,15.6,15.68,22.68l8.56,11.05,4.88,6.28c4.72,6,7.31,9.35,8.28,10.37a64.06,64.06,0,0,0,11.38,9.39,86.42,86.42,0,0,0,8.9,5.36,24,24,0,0,1-3.86,47.66Z"/><path d="M429.21,165a20.49,20.49,0,0,1,.66,41,90.51,90.51,0,0,0-8.49,5.17,66.86,66.86,0,0,0-12,9.88c-1.07,1.14-3.54,4.29-8.48,10.61l-4.88,6.29-8.59,11.08c-2.68,3.52-8.92,11.89-15.86,22.93-3,4.78-4.49,7.16-5.67,9.47a71,71,0,0,0-7.27,24.42,71.13,71.13,0,0,0,7.27,24.42c1.18,2.3,2.68,4.69,5.67,9.46,6.94,11.05,13.18,19.42,15.86,22.94l8.59,11.07,4.88,6.3c4.94,6.31,7.41,9.46,8.48,10.61a67.74,67.74,0,0,0,12,9.88,90,90,0,0,0,9.79,5.84,20.49,20.49,0,1,1-21.78,27.94l-.23.28a78.8,78.8,0,0,0-9.46-16.64,63,63,0,0,0-8.22-9.36c-1.22-1.12-1.82-1.58-10.77-8.58-5.28-4.14-5.15-4.05-6-4.68-3.67-2.84-6.94-5.28-11.39-8.53-10.84-7.94-16.26-11.91-22.2-15.71-4.67-3-7-4.47-9.52-5.77-9.37-4.84-18.49-7.46-26-7.46s-16.62,2.62-26,7.46c-2.51,1.3-4.84,2.79-9.51,5.77-5.95,3.8-11.37,7.77-22.21,15.71-4.45,3.25-7.71,5.69-11.39,8.53-.83.63-.7.54-6,4.68-8.95,7-9.55,7.46-10.77,8.58a62.26,62.26,0,0,0-8.21,9.36,78.77,78.77,0,0,0-9.47,16.64c-.07-.09-.15-.18-.22-.28a20.49,20.49,0,1,1-21.78-27.94,90,90,0,0,0,9.78-5.84,67.74,67.74,0,0,0,12-9.88c1.07-1.15,3.54-4.3,8.48-10.61,1.31-1.67,2.18-2.81,4.89-6.3l8.58-11.07c2.68-3.52,8.93-11.89,15.86-22.94,3-4.77,4.5-7.16,5.67-9.46,4.91-9.65,7.13-18.06,7.28-24.42.14-5.95-2.37-14.78-7.28-24.42-1.17-2.31-2.67-4.69-5.67-9.47-6.93-11-13.18-19.41-15.86-22.93l-8.58-11.08c-2.71-3.49-3.58-4.62-4.89-6.29-4.94-6.32-7.41-9.47-8.48-10.61a66.86,66.86,0,0,0-12-9.88,87.69,87.69,0,0,0-8.77-5.32A20.49,20.49,0,1,1,203.42,180a78,78,0,0,0,8.13,13.63,61.77,61.77,0,0,0,8.21,9.36c1.22,1.12,1.82,1.58,10.77,8.59l6,4.68c3.68,2.83,6.94,5.27,11.39,8.53,10.84,7.93,16.26,11.9,22.21,15.7,4.67,3,7,4.48,9.51,5.77,9.38,4.84,18.49,7.47,26,7.47s16.63-2.63,26-7.47c2.51-1.29,4.85-2.79,9.52-5.77,5.94-3.8,11.36-7.77,22.2-15.7,4.45-3.26,7.72-5.7,11.39-8.53l6-4.68c9-7,9.55-7.47,10.77-8.59a62.5,62.5,0,0,0,8.22-9.36A78.54,78.54,0,0,0,409.16,177l.91,1.12A20.48,20.48,0,0,1,429.21,165m0-7a27.62,27.62,0,0,0-19.7,8.35l-2.28-2.81-4.53,10.82a71.6,71.6,0,0,1-8.62,15.16,55,55,0,0,1-7.34,8.39c-.88.81-1.41,1.23-8.11,6.47l-2.23,1.76-3.83,3-2.11,1.64c-3.41,2.63-6.56,5-11.25,8.43-10.71,7.84-16.08,11.77-21.84,15.45-4.49,2.87-6.74,4.31-9,5.45-8.35,4.31-16.44,6.69-22.79,6.69s-14.44-2.38-22.78-6.69c-2.23-1.14-4.48-2.58-8.95-5.44-5.77-3.69-11.14-7.62-21.85-15.46-4.69-3.44-7.85-5.8-11.25-8.43-.53-.4-.66-.51-2.13-1.65l-3.81-3-2.24-1.76c-6.7-5.24-7.22-5.66-8.11-6.47a55.54,55.54,0,0,1-7.34-8.39A71.79,71.79,0,0,1,210,177.55a27.49,27.49,0,1,0-31.15,34.95c2.42,1.33,4.79,2.79,7.06,4.34a61.06,61.06,0,0,1,10.81,8.9c.86.92,3.73,4.58,8.07,10.13,1.31,1.67,2.18,2.8,4.87,6.28l2.17,2.79,6.39,8.25c3.7,4.86,9.4,12.7,15.49,22.4,2.88,4.59,4.33,6.9,5.36,8.92,4.2,8.24,6.63,16.12,6.52,21.08-.14,5.83-2.45,13.43-6.52,21.41-1,2-2.48,4.33-5.36,8.92-6.09,9.7-11.79,17.54-15.5,22.41l-4.2,5.43-4.35,5.61-.26.33c-2.49,3.22-3.34,4.32-4.6,5.93l0,.06c-4.33,5.52-7.18,9.17-8,10.08a60.62,60.62,0,0,1-10.81,8.9,83.42,83.42,0,0,1-8.06,4.88A27.49,27.49,0,1,0,202.36,446l1.66,2,4.52-10.81A72.09,72.09,0,0,1,217.16,422a55.54,55.54,0,0,1,7.34-8.39c.88-.81,1.41-1.23,8.11-6.47l2.24-1.75,4-3.1,2-1.55c3.41-2.63,6.56-5,11.25-8.42,10.71-7.85,16.08-11.78,21.84-15.46,4.48-2.86,6.73-4.3,8.95-5.45,8.35-4.31,16.45-6.68,22.79-6.68s14.44,2.37,22.79,6.68c2.23,1.15,4.47,2.58,8.95,5.45,5.77,3.68,11.14,7.62,21.85,15.46,4.68,3.43,7.84,5.79,11.25,8.42l2,1.54,4,3.11,2.24,1.75c6.69,5.24,7.22,5.66,8.1,6.47a55,55,0,0,1,7.34,8.39,71.84,71.84,0,0,1,8.62,15.16L407.24,448,408.9,446a27.5,27.5,0,1,0,24.5-46.44,83.27,83.27,0,0,1-8-4.88,60.64,60.64,0,0,1-10.82-8.9c-.86-.91-3.73-4.58-8.07-10.14-1.3-1.66-2.18-2.79-4.87-6.26L398,364.71l-5-6.4c-3.7-4.85-9.4-12.69-15.49-22.39-2.88-4.6-4.33-6.9-5.36-8.92a63.85,63.85,0,0,1-6.46-21.24,63.91,63.91,0,0,1,6.46-21.25c1-2,2.48-4.32,5.36-8.91,6.09-9.71,11.79-17.55,15.5-22.42l8.55-11c2.69-3.48,3.57-4.61,4.87-6.27,4.34-5.55,7.21-9.22,8.07-10.14a60.87,60.87,0,0,1,10.81-8.89c2.11-1.45,4.3-2.81,6.53-4.06A27.48,27.48,0,0,0,429.21,158Z"/><path class="5b7b3968-4359-4c52-a229-790cff215585" d="M105.61,275.42a5.63,5.63,0,0,1-4.25-1.93l-4-4.53a5.36,5.36,0,0,1,0-7.08c6.19-7,37.78-42.73,51.58-60,4.75-5.94,11-9.54,16.08-12.44,3.41-2,6.37-3.66,7.81-5.44.07-.23.16-.66.22-1a7.06,7.06,0,0,1,1.61-3.79.3.3,0,0,0,0-.1c.75-1.83,2.54-3.29,4.27-4.7a15.06,15.06,0,0,0,2.33-2.13c.86-1.56,1.58-4.53,2.34-7.66,1.76-7.27,4-16.32,10.48-20.67,16.72-11.15,56.08-41.67,63.79-47.67a5.71,5.71,0,0,1,3.48-1.2,5.63,5.63,0,0,1,4.25,1.93l4,4.53a5.36,5.36,0,0,1,0,7.08c-6.19,7-37.78,42.73-51.58,60-4.75,5.94-11,9.54-16.07,12.44-3.42,2-6.38,3.66-7.82,5.44-.07.23-.16.66-.22,1a7,7,0,0,1-1.61,3.79.36.36,0,0,0,0,.09c-.75,1.84-2.54,3.3-4.27,4.71a15.06,15.06,0,0,0-2.33,2.13c-.86,1.56-1.58,4.53-2.34,7.66-1.76,7.27-4,16.32-10.48,20.67-16.72,11.14-56.07,41.67-63.79,47.68a5.74,5.74,0,0,1-3.48,1.19Z"/><path d="M261.42,98.14a2.66,2.66,0,0,1,2,.91l4,4.53a2.35,2.35,0,0,1,0,3.11c-6.89,7.78-37.91,42.89-51.67,60.09-7.74,9.68-20,12.74-24.06,18.1-.69.91-.64,3.51-1.46,4.3a2.42,2.42,0,0,1-.49.37,3.82,3.82,0,0,1-.19.71c-.86,2.12-5.35,4.5-6.45,6.51-3.14,5.74-3.53,21.73-11.85,27.28-16.64,11.1-54.86,40.72-64,47.81a2.65,2.65,0,0,1-3.63-.35l-4-4.53a2.34,2.34,0,0,1,0-3.11c6.89-7.78,37.91-42.89,51.67-60.09,7.74-9.68,20-12.74,24.06-18.1.69-.91.65-3.51,1.46-4.3a2.5,2.5,0,0,1,.5-.37,3.19,3.19,0,0,1,.18-.71c.86-2.12,5.35-4.5,6.45-6.51,3.14-5.74,3.53-21.73,11.85-27.28,16.64-11.09,54.87-40.72,64-47.81a2.68,2.68,0,0,1,1.63-.56m0-6A8.7,8.7,0,0,0,256.1,94c-7.7,6-47,36.45-63.62,47.55-7.49,5-9.84,14.67-11.73,22.45a45.32,45.32,0,0,1-1.94,6.72c-.35.36-1.15,1-1.7,1.45-1.82,1.49-3.88,3.16-5,5.49a10.38,10.38,0,0,0-2,4.83l0,.12a39.92,39.92,0,0,1-6.56,4.28c-5.26,3-11.82,6.79-16.92,13.17-13.76,17.19-45.3,52.88-51.48,59.86a8.35,8.35,0,0,0,0,11.05l4,4.53a8.65,8.65,0,0,0,11.83,1.12c7.7-6,47-36.45,63.62-47.55,7.49-5,9.84-14.67,11.73-22.45a44,44,0,0,1,1.95-6.72,21.64,21.64,0,0,1,1.69-1.45c1.82-1.49,3.88-3.16,5-5.49a10.4,10.4,0,0,0,2-4.83l0-.12a39.92,39.92,0,0,1,6.56-4.28c5.27-3,11.82-6.79,16.92-13.17,13.76-17.19,45.3-52.88,51.48-59.86a8.35,8.35,0,0,0,0-11l-4-4.53a8.69,8.69,0,0,0-6.51-3Z"/><circle cx="183.92" cy="185.28" r="10.08"/><path d="M183.92,178.2a7.08,7.08,0,1,1-7.08,7.08,7.08,7.08,0,0,1,7.08-7.08m0-6A13.08,13.08,0,1,0,197,185.28a13.1,13.1,0,0,0-13.08-13.08Z"/><path class="5b7b3968-4359-4c52-a229-790cff215585" d="M350.46,517.15a5.66,5.66,0,0,1-4.25-1.93l-4-4.53a5.36,5.36,0,0,1,0-7.08c6.19-7,37.78-42.73,51.58-60,4.75-5.94,11-9.54,16.07-12.44,3.42-2,6.38-3.66,7.82-5.44.07-.23.16-.66.22-1a7,7,0,0,1,1.61-3.79.42.42,0,0,0,0-.1c.75-1.84,2.54-3.29,4.27-4.7a15.06,15.06,0,0,0,2.33-2.13c.86-1.56,1.58-4.53,2.34-7.67,1.76-7.27,4-16.31,10.48-20.66,16.71-11.14,56.07-41.67,63.79-47.68a5.66,5.66,0,0,1,7.73.74l4,4.52a5.37,5.37,0,0,1,0,7.08c-6.2,7-37.79,42.74-51.58,60-4.75,5.94-11,9.55-16.08,12.45-3.41,2-6.37,3.66-7.81,5.44-.07.22-.16.66-.22,1a7,7,0,0,1-1.62,3.79l0,.09c-.75,1.84-2.54,3.3-4.28,4.71a15.45,15.45,0,0,0-2.32,2.12c-.86,1.57-1.58,4.53-2.34,7.67-1.76,7.27-4,16.32-10.48,20.66C401,479.42,361.65,510,353.93,516a5.66,5.66,0,0,1-3.47,1.2Z"/><path d="M506.27,339.87a2.66,2.66,0,0,1,2,.91l4,4.52a2.35,2.35,0,0,1,0,3.12c-6.89,7.78-37.91,42.89-51.67,60.09-7.75,9.68-20,12.73-24.06,18.1-.69.9-.65,3.51-1.46,4.3a2.5,2.5,0,0,1-.5.37,3.1,3.1,0,0,1-.18.7c-.86,2.13-5.35,4.51-6.45,6.52-3.14,5.74-3.53,21.73-11.85,27.28-16.64,11.09-54.87,40.72-64,47.81a2.68,2.68,0,0,1-1.63.56,2.64,2.64,0,0,1-2-.91l-4-4.53a2.35,2.35,0,0,1,0-3.11c6.89-7.78,37.91-42.89,51.67-60.09,7.74-9.68,20-12.74,24.06-18.1.69-.91.64-3.51,1.46-4.3a2.87,2.87,0,0,1,.49-.38,3.92,3.92,0,0,1,.19-.7c.86-2.12,5.35-4.51,6.45-6.52,3.14-5.73,3.53-21.73,11.85-27.27,16.64-11.1,54.86-40.72,64-47.81a2.6,2.6,0,0,1,1.63-.56m0-6a8.73,8.73,0,0,0-5.32,1.82c-7.7,6-47,36.46-63.62,47.56-7.49,5-9.84,14.67-11.73,22.45a44.33,44.33,0,0,1-2,6.72c-.34.35-1.14,1-1.69,1.45-1.83,1.49-3.88,3.16-5,5.49a10.4,10.4,0,0,0-2,4.83l0,.12a39.92,39.92,0,0,1-6.56,4.28c-5.27,3-11.82,6.78-16.93,13.17-13.73,17.17-45.29,52.88-51.47,59.86a8.35,8.35,0,0,0,0,11l4,4.53a8.65,8.65,0,0,0,11.83,1.12c7.7-6,47-36.46,63.62-47.55,7.49-5,9.84-14.67,11.73-22.45a44.31,44.31,0,0,1,1.94-6.73c.35-.35,1.15-1,1.7-1.44,1.82-1.49,3.88-3.16,5-5.49a10.38,10.38,0,0,0,2-4.83l0-.12a38.86,38.86,0,0,1,6.56-4.28c5.26-3,11.82-6.79,16.92-13.17,13.76-17.2,45.3-52.89,51.48-59.87a8.36,8.36,0,0,0,0-11.05l-4-4.52a8.66,8.66,0,0,0-6.51-2.95Z"/><path d="M428.77,437.08A10.08,10.08,0,1,1,438.84,427,10.09,10.09,0,0,1,428.77,437.08Z"/><path d="M428.77,419.93a7.08,7.08,0,1,1-7.08,7.08,7.07,7.07,0,0,1,7.08-7.08m0-6A13.08,13.08,0,1,0,441.84,427a13.1,13.1,0,0,0-13.07-13.08Z"/><path class="5b7b3968-4359-4c52-a229-790cff215585" d="M508.92,272.75a5.34,5.34,0,0,1-3.55-1.35c-7-6.19-42.72-37.77-60-51.57-5.94-4.75-9.54-11-12.44-16.08-2-3.41-3.66-6.38-5.44-7.81-.23-.07-.66-.16-1-.22a7,7,0,0,1-3.79-1.62l-.1,0c-1.84-.74-3.29-2.54-4.7-4.27a15.55,15.55,0,0,0-2.13-2.33c-1.56-.85-4.53-1.57-7.67-2.33-7.27-1.77-16.31-4-20.66-10.48-11.14-16.72-41.67-56.08-47.68-63.8a5.67,5.67,0,0,1,.74-7.73l4.52-4a5.38,5.38,0,0,1,3.54-1.34,5.3,5.3,0,0,1,3.54,1.35c7,6.19,42.73,37.77,60,51.57,5.94,4.76,9.55,11,12.45,16.08,2,3.41,3.66,6.38,5.44,7.82.22.06.66.15,1,.21a7.07,7.07,0,0,1,3.79,1.62l.09,0c1.84.74,3.3,2.54,4.71,4.27a16.12,16.12,0,0,0,2.12,2.33,38.84,38.84,0,0,0,7.67,2.33c7.27,1.77,16.32,4,20.66,10.48,11.15,16.73,41.68,56.08,47.68,63.8a5.66,5.66,0,0,1-.73,7.73l-4.53,4a5.35,5.35,0,0,1-3.53,1.34Z"/><path d="M348.62,100.81a2.37,2.37,0,0,1,1.56.59c7.78,6.9,42.89,37.91,60.09,51.68,9.68,7.74,12.73,20,18.1,24.06.9.68,3.51.64,4.3,1.45a2.82,2.82,0,0,1,.37.5,3.7,3.7,0,0,1,.7.19c2.13.86,4.51,5.34,6.52,6.45,5.74,3.14,21.73,3.53,27.28,11.85,11.09,16.64,40.72,54.86,47.8,64a2.65,2.65,0,0,1-.34,3.63l-4.53,4a2.34,2.34,0,0,1-3.11,0c-7.78-6.9-42.89-37.91-60.1-51.68-9.67-7.74-12.73-20-18.09-24.06-.91-.68-3.51-.64-4.3-1.45a3.44,3.44,0,0,1-.38-.5,3.92,3.92,0,0,1-.7-.19c-2.12-.86-4.51-5.34-6.52-6.44-5.73-3.15-21.73-3.54-27.27-11.86-11.1-16.64-40.72-54.86-47.81-64a2.66,2.66,0,0,1,.35-3.63l4.52-4a2.37,2.37,0,0,1,1.56-.59m0-6a8.38,8.38,0,0,0-5.52,2.08l-4.52,4a8.67,8.67,0,0,0-1.13,11.82c6,7.71,36.46,47,47.56,63.62,5,7.49,14.67,9.84,22.45,11.73a45.52,45.52,0,0,1,6.72,2c.35.34,1,1.14,1.45,1.69,1.48,1.83,3.15,3.88,5.49,5a10.49,10.49,0,0,0,4.83,2l.12,0a40.36,40.36,0,0,1,4.28,6.56c3,5.27,6.78,11.82,13.17,16.93,17.2,13.76,52.88,45.3,59.86,51.48a8.35,8.35,0,0,0,11,0l4.53-4a8.66,8.66,0,0,0,1.12-11.82c-6-7.71-36.47-47-47.55-63.62-5-7.49-14.67-9.84-22.45-11.73a45.34,45.34,0,0,1-6.73-2c-.35-.34-1-1.14-1.44-1.69-1.49-1.83-3.16-3.88-5.49-5a10.58,10.58,0,0,0-4.83-2l-.12,0a39.7,39.7,0,0,1-4.28-6.56c-3-5.27-6.79-11.82-13.17-16.93-17.22-13.78-52.89-45.3-59.87-51.48a8.35,8.35,0,0,0-5.53-2.1Z"/><circle cx="428.77" cy="184.88" r="10.08" transform="translate(-38.11 178.16) rotate(-22.5)"/><path d="M428.77,177.8a7.08,7.08,0,1,1-7.08,7.08,7.07,7.07,0,0,1,7.08-7.08m0-6a13.08,13.08,0,1,0,13.07,13.08,13.1,13.1,0,0,0-13.07-13.08Z"/><path class="5b7b3968-4359-4c52-a229-790cff215585" d="M263.66,514.68a5.38,5.38,0,0,1-3.54-1.34c-7-6.19-42.74-37.78-60-51.58-5.94-4.75-9.55-11-12.44-16.07-2-3.42-3.67-6.38-5.44-7.82-.23-.07-.66-.16-1-.22a7,7,0,0,1-3.79-1.61l-.1,0c-1.84-.75-3.3-2.54-4.7-4.27a15.58,15.58,0,0,0-2.13-2.33c-1.57-.86-4.53-1.58-7.67-2.34-7.27-1.76-16.32-4-20.66-10.48-11.15-16.72-41.67-56.07-47.68-63.79a5.66,5.66,0,0,1,.74-7.73l4.52-4a5.36,5.36,0,0,1,7.08,0c7,6.2,42.74,37.78,60,51.58,5.94,4.75,9.55,11,12.44,16.08,2,3.41,3.67,6.37,5.44,7.81.23.07.66.16,1,.22a7,7,0,0,1,3.78,1.61l.1,0c1.84.75,3.3,2.54,4.7,4.28a15.43,15.43,0,0,0,2.13,2.32c1.57.86,4.53,1.58,7.67,2.34,7.27,1.76,16.32,4,20.66,10.48,11.15,16.72,41.67,56.08,47.68,63.79a5.67,5.67,0,0,1-.73,7.73l-4.53,4a5.37,5.37,0,0,1-3.54,1.33Z"/><path d="M103.37,342.75a2.35,2.35,0,0,1,1.55.59c7.79,6.89,42.9,37.91,60.1,51.67,9.68,7.75,12.73,20,18.1,24.06.9.69,3.5.65,4.3,1.46a3,3,0,0,1,.37.5,3.25,3.25,0,0,1,.7.18c2.13.86,4.51,5.35,6.52,6.45,5.73,3.14,21.73,3.53,27.28,11.85,11.09,16.64,40.71,54.87,47.8,64a2.66,2.66,0,0,1-.34,3.63l-4.53,4a2.36,2.36,0,0,1-1.56.58,2.3,2.3,0,0,1-1.55-.59c-7.79-6.89-42.9-37.91-60.1-51.67-9.68-7.74-12.73-20-18.1-24.06-.9-.69-3.5-.64-4.29-1.46a2.44,2.44,0,0,1-.38-.49,3.92,3.92,0,0,1-.7-.19c-2.12-.86-4.51-5.35-6.52-6.45-5.73-3.14-21.73-3.53-27.27-11.85-11.1-16.64-40.72-54.86-47.81-64a2.66,2.66,0,0,1,.34-3.63l4.53-4a2.32,2.32,0,0,1,1.56-.59m0-6a8.38,8.38,0,0,0-5.52,2.08l-4.52,4a8.68,8.68,0,0,0-1.13,11.83c6,7.7,36.46,47,47.55,63.62,5,7.49,14.68,9.84,22.45,11.73a44.16,44.16,0,0,1,6.73,1.95c.35.34,1,1.14,1.45,1.69,1.48,1.82,3.15,3.88,5.49,5a10.36,10.36,0,0,0,4.83,2l.12,0a39.32,39.32,0,0,1,4.27,6.56c3,5.27,6.79,11.82,13.17,16.93,17.21,13.76,52.89,45.29,59.87,51.47a8.35,8.35,0,0,0,11.05,0l4.53-4a8.68,8.68,0,0,0,1.12-11.83c-6-7.7-36.47-47-47.55-63.62-5-7.49-14.68-9.84-22.45-11.73a45.5,45.5,0,0,1-6.73-1.94c-.35-.35-1-1.15-1.45-1.7-1.48-1.82-3.15-3.88-5.49-5a10.36,10.36,0,0,0-4.83-2l-.12,0a39.32,39.32,0,0,1-4.27-6.56c-3-5.26-6.79-11.82-13.17-16.92-17.22-13.78-52.89-45.3-59.87-51.48a8.3,8.3,0,0,0-5.53-2.1Z"/><circle cx="183.52" cy="426.81" r="10.08" transform="translate(-149.36 102.72) rotate(-22.5)"/><path d="M183.52,419.74a7.08,7.08,0,1,1-7.08,7.07,7.07,7.07,0,0,1,7.08-7.07m0-6a13.08,13.08,0,1,0,13.07,13.07,13.08,13.08,0,0,0-13.07-13.07Z"/><line class="f3cb937f-59e8-428e-be5c-820a0a85e3f6" x1="366.62" y1="221.32" x2="390.89" y2="245.31"/><line class="5b7b3968-4359-4c52-a229-790cff215585" x1="374.46" y1="216.54" x2="395.81" y2="237.89"/><line class="5b7b3968-4359-4c52-a229-790cff215585" x1="380.83" y1="211.47" x2="400.67" y2="231.65"/><line class="f3cb937f-59e8-428e-be5c-820a0a85e3f6" x1="389.09" y1="205.44" x2="406.7" y2="223.4"/><line class="f3cb937f-59e8-428e-be5c-820a0a85e3f6" x1="221.2" y1="246.01" x2="245.2" y2="221.74"/><line class="5b7b3968-4359-4c52-a229-790cff215585" x1="216.42" y1="238.17" x2="237.78" y2="216.81"/><line class="5b7b3968-4359-4c52-a229-790cff215585" x1="211.36" y1="231.79" x2="231.54" y2="211.96"/><line class="f3cb937f-59e8-428e-be5c-820a0a85e3f6" x1="205.33" y1="223.54" x2="223.29" y2="205.93"/></svg>