<svg xmlns="http://www.w3.org/2000/svg" viewBox="0 0 612.28 612.28"><defs><style>.c3ed9f53-e0d1-4d08-a845-ab098792cc46{fill:#231f20;}.\31 cb9b812-82eb-42fa-a272-6c08c6cb4dcd{fill:#fff;}</style></defs><title>2020-kleurboek-print</title><g id="223748a5-dd41-43d7-9c19-1bb9e0ab62b0" data-name="Phone"><g id="cf742c09-ba72-4bfa-b5c0-0ee9960e477e" data-name="drawing"><path class="c3ed9f53-e0d1-4d08-a845-ab098792cc46" d="M363.87,105.65a36.85,36.85,0,0,1,36.85,36.85V479.05a36.85,36.85,0,0,1-36.85,36.85H248.41a36.85,36.85,0,0,1-36.85-36.85V142.5a36.85,36.85,0,0,1,36.85-36.85H363.87m0-12H248.41a48.9,48.9,0,0,0-48.85,48.85V479.05a48.9,48.9,0,0,0,48.85,48.85H363.87a48.9,48.9,0,0,0,48.85-48.85V142.5a48.9,48.9,0,0,0-48.85-48.85Z"/><path class="c3ed9f53-e0d1-4d08-a845-ab098792cc46" d="M263.19,120.52a9.67,9.67,0,0,1-9.66-9.66v-14H358.78v14a9.67,9.67,0,0,1-9.66,9.66Z"/><path class="c3ed9f53-e0d1-4d08-a845-ab098792cc46" d="M358.28,97.38v13.48a9.17,9.17,0,0,1-9.16,9.16H263.19a9.17,9.17,0,0,1-9.16-9.16V97.38H358.28m1-1H253v14.48A10.16,10.16,0,0,0,263.19,121h85.93a10.16,10.16,0,0,0,10.16-10.16V96.38Z"/><path class="c3ed9f53-e0d1-4d08-a845-ab098792cc46" d="M253,111.76v-6.12h-6.12A6.12,6.12,0,0,1,253,111.76Z"/><path class="c3ed9f53-e0d1-4d08-a845-ab098792cc46" d="M359.28,111.76v-6.12h6.11A6.12,6.12,0,0,0,359.28,111.76Z"/><circle class="1cb9b812-82eb-42fa-a272-6c08c6cb4dcd" cx="328.9" cy="110.44" r="3.54"/></g></g></svg>