<svg xmlns="http://www.w3.org/2000/svg" viewBox="0 0 612.28 612.28"><defs><style>.\31 f8815cf-133c-454e-b29c-2a8ed7835ea9,.dd634ffc-1279-448a-a7a5-86c2f86057dd,.e1a898c2-2888-44c0-bbdc-02366683e5cf,.f78cca69-0ac5-479f-9cbb-7e87abcc2b50,.ff93dded-7fb3-4283-826a-0b5a61492056{stroke:#000;stroke-miterlimit:10;}.\37 e9eabc2-a8d6-4b8b-957a-a2568e948e88{fill:#fff;}.dd634ffc-1279-448a-a7a5-86c2f86057dd,.e1a898c2-2888-44c0-bbdc-02366683e5cf,.f78cca69-0ac5-479f-9cbb-7e87abcc2b50,.ff93dded-7fb3-4283-826a-0b5a61492056{fill:none;}.e1a898c2-2888-44c0-bbdc-02366683e5cf{stroke-width:9px;}.f78cca69-0ac5-479f-9cbb-7e87abcc2b50{stroke-width:6px;}.ff93dded-7fb3-4283-826a-0b5a61492056{stroke-width:8px;}.dd634ffc-1279-448a-a7a5-86c2f86057dd{stroke-width:4px;}</style></defs><title>2020-kleurboek-print</title><g id="63ef4464-c41e-45db-aaa2-9b264bcbeac1" data-name="Fridge"><path class="1f8815cf-133c-454e-b29c-2a8ed7835ea9" d="M234.26,498h-28a4.37,4.37,0,0,0-4.36,4.37v10.2a4.36,4.36,0,0,0,4.56,4.36l23.36-1.06a4.36,4.36,0,0,0,3.69-2.39l4.63-9.14A4.36,4.36,0,0,0,234.26,498Z"/><path class="1f8815cf-133c-454e-b29c-2a8ed7835ea9" d="M377.59,498h28a4.37,4.37,0,0,1,4.36,4.37v10.2a4.36,4.36,0,0,1-4.56,4.36L382,515.84a4.37,4.37,0,0,1-3.7-2.39l-4.63-9.14A4.36,4.36,0,0,1,377.59,498Z"/><rect class="7e9eabc2-a8d6-4b8b-957a-a2568e948e88" x="197.91" y="91.38" width="216.04" height="413.69" rx="4" ry="4"/><path d="M409.94,95.38V501.07h-208V95.38h208m0-8h-208a8,8,0,0,0-8,8V501.07a8,8,0,0,0,8,8h208a8,8,0,0,0,8-8V95.38a8,8,0,0,0-8-8Z"/><rect class="e1a898c2-2888-44c0-bbdc-02366683e5cf" x="294.5" y="127.66" width="22.85" height="314.99" rx="4.18" ry="4.18"/><rect class="f78cca69-0ac5-479f-9cbb-7e87abcc2b50" x="332.68" y="127.66" width="62.8" height="156.5" rx="5.97" ry="5.97"/><line class="ff93dded-7fb3-4283-826a-0b5a61492056" x1="305.93" y1="127.66" x2="305.93" y2="95.38"/><line class="ff93dded-7fb3-4283-826a-0b5a61492056" x1="305.93" y1="501.07" x2="305.93" y2="442.65"/><line class="dd634ffc-1279-448a-a7a5-86c2f86057dd" x1="305.93" y1="442.65" x2="305.93" y2="127.66"/><line class="ff93dded-7fb3-4283-826a-0b5a61492056" x1="294.5" y1="319.42" x2="201.91" y2="319.42"/><line class="ff93dded-7fb3-4283-826a-0b5a61492056" x1="410.38" y1="319.42" x2="317.78" y2="319.42"/><line class="dd634ffc-1279-448a-a7a5-86c2f86057dd" x1="354.39" y1="319.42" x2="261.79" y2="319.42"/></g></svg>