<svg xmlns="http://www.w3.org/2000/svg" viewBox="0 0 612.28 612.29"><defs><style>.\32 70baabd-cbe4-45bd-ac3f-41d512b60094,.b7a55b22-9544-4aa5-9d21-623389391461{fill:#fff;}.\32 08390d4-4121-42d9-a7ab-e2b4133433c3,.\32 70baabd-cbe4-45bd-ac3f-41d512b60094,.\37 3907e55-7214-420c-8c69-07b221652368{stroke:#000;stroke-miterlimit:10;}.\32 70baabd-cbe4-45bd-ac3f-41d512b60094{stroke-width:10px;}.\32 08390d4-4121-42d9-a7ab-e2b4133433c3{fill:none;stroke-width:8px;}</style></defs><title>2020-kleurboek-print</title><g id="36d51013-3ce7-46d7-8cdc-1e3e94c53e8a" data-name="Nest"><rect class="270baabd-cbe4-45bd-ac3f-41d512b60094" x="104.89" y="104.02" width="404.14" height="404.14" rx="123.71" ry="123.71"/><circle class="208390d4-4121-42d9-a7ab-e2b4133433c3" cx="306.14" cy="306.14" r="89.29"/><circle class="b7a55b22-9544-4aa5-9d21-623389391461" cx="306.14" cy="306.14" r="70.7" transform="translate(-126.81 306.14) rotate(-45)"/><path d="M306.14,238.44a67.7,67.7,0,1,1-67.7,67.7,67.78,67.78,0,0,1,67.7-67.7m0-6a73.7,73.7,0,1,0,73.7,73.7,73.7,73.7,0,0,0-73.7-73.7Z"/><circle class="73907e55-7214-420c-8c69-07b221652368" cx="306.14" cy="199.09" r="5.83"/><circle class="73907e55-7214-420c-8c69-07b221652368" cx="306.14" cy="168.76" r="7"/><circle class="73907e55-7214-420c-8c69-07b221652368" cx="306.14" cy="131.43" r="9.33"/><circle class="73907e55-7214-420c-8c69-07b221652368" cx="290.27" cy="185.55" r="6.42"/><circle class="73907e55-7214-420c-8c69-07b221652368" cx="285.93" cy="152.59" r="8.17"/><circle class="73907e55-7214-420c-8c69-07b221652368" cx="280.29" cy="109.79" r="11.67"/><circle class="73907e55-7214-420c-8c69-07b221652368" cx="278.43" cy="202.74" r="5.83"/><circle class="73907e55-7214-420c-8c69-07b221652368" cx="270.58" cy="173.44" r="7"/><circle class="73907e55-7214-420c-8c69-07b221652368" cx="260.92" cy="137.38" r="9.33"/><circle class="73907e55-7214-420c-8c69-07b221652368" cx="259.59" cy="193.77" r="6.42"/><circle class="73907e55-7214-420c-8c69-07b221652368" cx="246.87" cy="163.05" r="8.17"/><circle class="73907e55-7214-420c-8c69-07b221652368" cx="230.35" cy="123.17" r="11.67"/><circle class="73907e55-7214-420c-8c69-07b221652368" cx="252.62" cy="213.43" r="5.83"/><circle class="73907e55-7214-420c-8c69-07b221652368" cx="237.45" cy="187.17" r="7"/><circle class="73907e55-7214-420c-8c69-07b221652368" cx="218.78" cy="154.84" r="9.33"/><circle class="73907e55-7214-420c-8c69-07b221652368" cx="193.12" cy="110.38" r="14"/><circle class="73907e55-7214-420c-8c69-07b221652368" cx="232.09" cy="209.64" r="6.42"/><circle class="73907e55-7214-420c-8c69-07b221652368" cx="211.85" cy="183.27" r="8.17"/><circle class="73907e55-7214-420c-8c69-07b221652368" cx="185.58" cy="149.02" r="11.67"/><circle class="73907e55-7214-420c-8c69-07b221652368" cx="230.44" cy="230.45" r="5.83"/><circle class="73907e55-7214-420c-8c69-07b221652368" cx="209" cy="209" r="7"/><circle class="73907e55-7214-420c-8c69-07b221652368" cx="182.6" cy="182.6" r="9.33"/><circle class="73907e55-7214-420c-8c69-07b221652368" cx="146.3" cy="146.3" r="14"/><circle class="73907e55-7214-420c-8c69-07b221652368" cx="209.64" cy="232.1" r="6.42"/><circle class="73907e55-7214-420c-8c69-07b221652368" cx="183.26" cy="211.86" r="8.17"/><circle class="73907e55-7214-420c-8c69-07b221652368" cx="149.02" cy="185.58" r="11.67"/><circle class="73907e55-7214-420c-8c69-07b221652368" cx="213.43" cy="252.62" r="5.83"/><circle class="73907e55-7214-420c-8c69-07b221652368" cx="187.16" cy="237.45" r="7"/><circle class="73907e55-7214-420c-8c69-07b221652368" cx="154.83" cy="218.79" r="9.33"/><path class="73907e55-7214-420c-8c69-07b221652368" d="M103.38,205.24A13.72,13.72,0,0,1,99.55,202a14,14,0,1,1,3.83,3.24Z"/><circle class="73907e55-7214-420c-8c69-07b221652368" cx="193.77" cy="259.6" r="6.42"/><circle class="73907e55-7214-420c-8c69-07b221652368" cx="163.05" cy="246.87" r="8.17"/><circle class="73907e55-7214-420c-8c69-07b221652368" cx="123.17" cy="230.35" r="11.67"/><circle class="73907e55-7214-420c-8c69-07b221652368" cx="202.74" cy="278.44" r="5.83"/><circle class="73907e55-7214-420c-8c69-07b221652368" cx="173.44" cy="270.59" r="7"/><circle class="73907e55-7214-420c-8c69-07b221652368" cx="137.38" cy="260.92" r="9.33"/><circle class="73907e55-7214-420c-8c69-07b221652368" cx="185.55" cy="290.27" r="6.42"/><circle class="73907e55-7214-420c-8c69-07b221652368" cx="152.58" cy="285.93" r="8.17"/><circle class="73907e55-7214-420c-8c69-07b221652368" cx="109.79" cy="280.29" r="11.67"/><circle class="73907e55-7214-420c-8c69-07b221652368" cx="199.09" cy="306.14" r="5.83"/><circle class="73907e55-7214-420c-8c69-07b221652368" cx="168.76" cy="306.14" r="7"/><circle class="73907e55-7214-420c-8c69-07b221652368" cx="131.43" cy="306.14" r="9.33"/><circle class="73907e55-7214-420c-8c69-07b221652368" cx="185.55" cy="322.02" r="6.42"/><circle class="73907e55-7214-420c-8c69-07b221652368" cx="152.58" cy="326.36" r="8.17"/><circle class="73907e55-7214-420c-8c69-07b221652368" cx="109.79" cy="331.99" r="11.67"/><circle class="73907e55-7214-420c-8c69-07b221652368" cx="202.74" cy="333.85" r="5.83"/><circle class="73907e55-7214-420c-8c69-07b221652368" cx="173.44" cy="341.7" r="7"/><circle class="73907e55-7214-420c-8c69-07b221652368" cx="137.38" cy="351.36" r="9.33"/><circle class="73907e55-7214-420c-8c69-07b221652368" cx="193.77" cy="352.69" r="6.42"/><circle class="73907e55-7214-420c-8c69-07b221652368" cx="163.05" cy="365.42" r="8.17"/><circle class="73907e55-7214-420c-8c69-07b221652368" cx="123.17" cy="381.93" r="11.67"/><circle class="73907e55-7214-420c-8c69-07b221652368" cx="213.43" cy="359.67" r="5.83"/><circle class="73907e55-7214-420c-8c69-07b221652368" cx="187.16" cy="374.84" r="7"/><circle class="73907e55-7214-420c-8c69-07b221652368" cx="154.83" cy="393.5" r="9.33"/><circle class="73907e55-7214-420c-8c69-07b221652368" cx="110.38" cy="419.17" r="14"/><circle class="73907e55-7214-420c-8c69-07b221652368" cx="209.64" cy="380.19" r="6.42"/><circle class="73907e55-7214-420c-8c69-07b221652368" cx="183.26" cy="400.43" r="8.17"/><circle class="73907e55-7214-420c-8c69-07b221652368" cx="149.02" cy="426.71" r="11.67"/><circle class="73907e55-7214-420c-8c69-07b221652368" cx="230.44" cy="381.84" r="5.83"/><circle class="73907e55-7214-420c-8c69-07b221652368" cx="209" cy="403.29" r="7"/><circle class="73907e55-7214-420c-8c69-07b221652368" cx="182.6" cy="429.69" r="9.33"/><circle class="73907e55-7214-420c-8c69-07b221652368" cx="146.3" cy="465.98" r="14"/><circle class="73907e55-7214-420c-8c69-07b221652368" cx="232.09" cy="402.64" r="6.42"/><circle class="73907e55-7214-420c-8c69-07b221652368" cx="211.85" cy="429.02" r="8.17"/><circle class="73907e55-7214-420c-8c69-07b221652368" cx="185.58" cy="463.27" r="11.67"/><circle class="73907e55-7214-420c-8c69-07b221652368" cx="252.62" cy="398.85" r="5.83"/><circle class="73907e55-7214-420c-8c69-07b221652368" cx="237.45" cy="425.12" r="7"/><circle class="73907e55-7214-420c-8c69-07b221652368" cx="218.78" cy="457.45" r="9.33"/><circle class="73907e55-7214-420c-8c69-07b221652368" cx="193.12" cy="501.91" r="14"/><circle class="73907e55-7214-420c-8c69-07b221652368" cx="259.59" cy="418.52" r="6.42"/><circle class="73907e55-7214-420c-8c69-07b221652368" cx="246.87" cy="449.24" r="8.17"/><circle class="73907e55-7214-420c-8c69-07b221652368" cx="230.35" cy="489.12" r="11.67"/><circle class="73907e55-7214-420c-8c69-07b221652368" cx="278.43" cy="409.55" r="5.83"/><circle class="73907e55-7214-420c-8c69-07b221652368" cx="270.58" cy="438.85" r="7"/><circle class="73907e55-7214-420c-8c69-07b221652368" cx="260.92" cy="474.91" r="9.33"/><circle class="73907e55-7214-420c-8c69-07b221652368" cx="290.27" cy="426.74" r="6.42"/><circle class="73907e55-7214-420c-8c69-07b221652368" cx="285.93" cy="459.7" r="8.17"/><circle class="73907e55-7214-420c-8c69-07b221652368" cx="280.29" cy="502.5" r="11.67"/><circle class="73907e55-7214-420c-8c69-07b221652368" cx="306.14" cy="413.2" r="5.83"/><circle class="73907e55-7214-420c-8c69-07b221652368" cx="306.14" cy="443.53" r="7"/><circle class="73907e55-7214-420c-8c69-07b221652368" cx="306.14" cy="480.86" r="9.33"/><circle class="73907e55-7214-420c-8c69-07b221652368" cx="322.02" cy="426.74" r="6.42"/><circle class="73907e55-7214-420c-8c69-07b221652368" cx="326.36" cy="459.7" r="8.17"/><circle class="73907e55-7214-420c-8c69-07b221652368" cx="331.99" cy="502.5" r="11.67"/><circle class="73907e55-7214-420c-8c69-07b221652368" cx="333.85" cy="409.55" r="5.83"/><circle class="73907e55-7214-420c-8c69-07b221652368" cx="341.7" cy="438.85" r="7"/><circle class="73907e55-7214-420c-8c69-07b221652368" cx="351.36" cy="474.91" r="9.33"/><circle class="73907e55-7214-420c-8c69-07b221652368" cx="352.69" cy="418.52" r="6.42"/><circle class="73907e55-7214-420c-8c69-07b221652368" cx="365.41" cy="449.24" r="8.17"/><circle class="73907e55-7214-420c-8c69-07b221652368" cx="381.93" cy="489.12" r="11.67"/><circle class="73907e55-7214-420c-8c69-07b221652368" cx="359.67" cy="398.85" r="5.83"/><circle class="73907e55-7214-420c-8c69-07b221652368" cx="374.83" cy="425.12" r="7"/><circle class="73907e55-7214-420c-8c69-07b221652368" cx="393.5" cy="457.45" r="9.33"/><circle class="73907e55-7214-420c-8c69-07b221652368" cx="419.17" cy="501.91" r="14"/><circle class="73907e55-7214-420c-8c69-07b221652368" cx="380.19" cy="402.64" r="6.42"/><circle class="73907e55-7214-420c-8c69-07b221652368" cx="400.43" cy="429.02" r="8.17"/><circle class="73907e55-7214-420c-8c69-07b221652368" cx="426.71" cy="463.27" r="11.67"/><circle class="73907e55-7214-420c-8c69-07b221652368" cx="381.84" cy="381.84" r="5.83"/><circle class="73907e55-7214-420c-8c69-07b221652368" cx="403.29" cy="403.29" r="7"/><circle class="73907e55-7214-420c-8c69-07b221652368" cx="429.68" cy="429.69" r="9.33"/><circle class="73907e55-7214-420c-8c69-07b221652368" cx="465.98" cy="465.98" r="14"/><circle class="73907e55-7214-420c-8c69-07b221652368" cx="402.64" cy="380.19" r="6.42"/><circle class="73907e55-7214-420c-8c69-07b221652368" cx="429.02" cy="400.43" r="8.17"/><circle class="73907e55-7214-420c-8c69-07b221652368" cx="463.26" cy="426.71" r="11.67"/><circle class="73907e55-7214-420c-8c69-07b221652368" cx="398.85" cy="359.67" r="5.83"/><circle class="73907e55-7214-420c-8c69-07b221652368" cx="425.12" cy="374.84" r="7"/><circle class="73907e55-7214-420c-8c69-07b221652368" cx="457.45" cy="393.5" r="9.33"/><circle class="73907e55-7214-420c-8c69-07b221652368" cx="501.9" cy="419.17" r="14"/><circle class="73907e55-7214-420c-8c69-07b221652368" cx="418.52" cy="352.69" r="6.42"/><circle class="73907e55-7214-420c-8c69-07b221652368" cx="449.24" cy="365.42" r="8.17"/><circle class="73907e55-7214-420c-8c69-07b221652368" cx="489.11" cy="381.93" r="11.67"/><circle class="73907e55-7214-420c-8c69-07b221652368" cx="409.55" cy="333.85" r="5.83"/><circle class="73907e55-7214-420c-8c69-07b221652368" cx="438.85" cy="341.7" r="7"/><circle class="73907e55-7214-420c-8c69-07b221652368" cx="474.9" cy="351.36" r="9.33"/><circle class="73907e55-7214-420c-8c69-07b221652368" cx="426.74" cy="322.02" r="6.42"/><circle class="73907e55-7214-420c-8c69-07b221652368" cx="459.7" cy="326.36" r="8.17"/><circle class="73907e55-7214-420c-8c69-07b221652368" cx="502.5" cy="331.99" r="11.67"/><circle class="73907e55-7214-420c-8c69-07b221652368" cx="413.19" cy="306.14" r="5.83"/><circle class="73907e55-7214-420c-8c69-07b221652368" cx="443.53" cy="306.14" r="7"/><circle class="73907e55-7214-420c-8c69-07b221652368" cx="480.86" cy="306.14" r="9.33"/><circle class="73907e55-7214-420c-8c69-07b221652368" cx="426.74" cy="290.27" r="6.42"/><circle class="73907e55-7214-420c-8c69-07b221652368" cx="459.7" cy="285.93" r="8.17"/><circle class="73907e55-7214-420c-8c69-07b221652368" cx="502.5" cy="280.29" r="11.67"/><circle class="73907e55-7214-420c-8c69-07b221652368" cx="409.55" cy="278.44" r="5.83"/><circle class="73907e55-7214-420c-8c69-07b221652368" cx="438.85" cy="270.59" r="7"/><circle class="73907e55-7214-420c-8c69-07b221652368" cx="474.9" cy="260.92" r="9.33"/><circle class="73907e55-7214-420c-8c69-07b221652368" cx="418.52" cy="259.6" r="6.42"/><circle class="73907e55-7214-420c-8c69-07b221652368" cx="449.24" cy="246.87" r="8.17"/><circle class="73907e55-7214-420c-8c69-07b221652368" cx="489.11" cy="230.35" r="11.67"/><circle class="73907e55-7214-420c-8c69-07b221652368" cx="398.85" cy="252.62" r="5.83"/><circle class="73907e55-7214-420c-8c69-07b221652368" cx="425.12" cy="237.45" r="7"/><circle class="73907e55-7214-420c-8c69-07b221652368" cx="457.45" cy="218.79" r="9.33"/><circle class="73907e55-7214-420c-8c69-07b221652368" cx="501.9" cy="193.12" r="14"/><circle class="73907e55-7214-420c-8c69-07b221652368" cx="402.64" cy="232.1" r="6.42"/><circle class="73907e55-7214-420c-8c69-07b221652368" cx="429.02" cy="211.86" r="8.17"/><circle class="73907e55-7214-420c-8c69-07b221652368" cx="463.26" cy="185.58" r="11.67"/><circle class="73907e55-7214-420c-8c69-07b221652368" cx="381.84" cy="230.45" r="5.83"/><circle class="73907e55-7214-420c-8c69-07b221652368" cx="403.29" cy="209" r="7"/><circle class="73907e55-7214-420c-8c69-07b221652368" cx="429.68" cy="182.6" r="9.33"/><circle class="73907e55-7214-420c-8c69-07b221652368" cx="465.98" cy="146.3" r="14"/><circle class="73907e55-7214-420c-8c69-07b221652368" cx="380.19" cy="209.64" r="6.42"/><circle class="73907e55-7214-420c-8c69-07b221652368" cx="400.43" cy="183.27" r="8.17"/><circle class="73907e55-7214-420c-8c69-07b221652368" cx="426.71" cy="149.02" r="11.67"/><circle class="73907e55-7214-420c-8c69-07b221652368" cx="359.67" cy="213.43" r="5.83"/><circle class="73907e55-7214-420c-8c69-07b221652368" cx="374.83" cy="187.17" r="7"/><circle class="73907e55-7214-420c-8c69-07b221652368" cx="393.5" cy="154.84" r="9.33"/><circle class="73907e55-7214-420c-8c69-07b221652368" cx="419.17" cy="110.38" r="14"/><circle class="73907e55-7214-420c-8c69-07b221652368" cx="352.69" cy="193.77" r="6.42"/><circle class="73907e55-7214-420c-8c69-07b221652368" cx="365.41" cy="163.05" r="8.17"/><circle class="73907e55-7214-420c-8c69-07b221652368" cx="381.93" cy="123.17" r="11.67"/><circle class="73907e55-7214-420c-8c69-07b221652368" cx="333.85" cy="202.74" r="5.83"/><circle class="73907e55-7214-420c-8c69-07b221652368" cx="341.7" cy="173.44" r="7"/><circle class="73907e55-7214-420c-8c69-07b221652368" cx="351.36" cy="137.38" r="9.33"/><circle class="73907e55-7214-420c-8c69-07b221652368" cx="322.02" cy="185.55" r="6.42"/><circle class="73907e55-7214-420c-8c69-07b221652368" cx="326.36" cy="152.59" r="8.17"/><circle class="73907e55-7214-420c-8c69-07b221652368" cx="331.99" cy="109.79" r="11.67"/><path class="b7a55b22-9544-4aa5-9d21-623389391461" d="M386.84,99.17c69.88,0,127.05,57.17,127.05,127.05V386c0,69.88-57.17,127-127,127H227.09c-69.88,0-127-57.17-127-127V226.22c0-69.88,57.17-127,127.05-127H386.84m0-10H227.09A137.42,137.42,0,0,0,90,226.22V386A137.42,137.42,0,0,0,227.09,523H386.84A137.42,137.42,0,0,0,523.89,386V226.22a137.42,137.42,0,0,0-137-137Z"/></g></svg>