<svg xmlns="http://www.w3.org/2000/svg" viewBox="0 0 612.28 612.29"><defs><style>.\37 17ecd4a-335a-40d7-9415-f1de85e4c58b{stroke:#000;stroke-miterlimit:10;stroke-width:3px;}</style></defs><title>2020-kleurboek-print</title><g id="2d12a20b-519e-4c00-b9a1-0889c8c36de0" data-name="TV"><path d="M515.91,170.1V406.43H96.38V170.1H515.91m0-10H96.38a10,10,0,0,0-10,10V406.43a10,10,0,0,0,10,10H515.91a10,10,0,0,0,10-10V170.1a10,10,0,0,0-10-10Z"/><path class="717ecd4a-335a-40d7-9415-f1de85e4c58b" d="M138.53,422.7v-9.47a3.41,3.41,0,0,0-3.41-3.4H130.6a3.41,3.41,0,0,0-3.41,3.4v9.58a3.39,3.39,0,0,1-1.66,2.92l-17,10.12a3.42,3.42,0,0,0-1.66,2.93h0A3.41,3.41,0,0,0,111.3,442l29.48-9.25a3.42,3.42,0,0,0,2.39-3.26v-.26a3.41,3.41,0,0,0-1.81-3l-1-.55A3.39,3.39,0,0,1,138.53,422.7Z"/><path class="717ecd4a-335a-40d7-9415-f1de85e4c58b" d="M473.76,422.7v-9.47a3.4,3.4,0,0,1,3.4-3.4h4.53a3.4,3.4,0,0,1,3.4,3.4v9.58a3.38,3.38,0,0,0,1.67,2.92l17,10.12a3.42,3.42,0,0,1,1.66,2.93h0A3.4,3.4,0,0,1,501,442l-29.49-9.25a3.42,3.42,0,0,1-2.38-3.26v-.26a3.4,3.4,0,0,1,1.81-3l1-.55A3.4,3.4,0,0,0,473.76,422.7Z"/></g></svg>