<svg xmlns="http://www.w3.org/2000/svg" viewBox="0 0 612.28 612.28"><defs><style>.\31 ccee8d6-57b2-4a41-b66a-609ca470fbce,.\32 b0f5894-3132-4251-8cd0-3e4b448ea439,.d39a97b7-553a-4520-84a1-a342fd910831{fill:none;}.\31 ccee8d6-57b2-4a41-b66a-609ca470fbce,.\32 b0f5894-3132-4251-8cd0-3e4b448ea439,.\34 bbb43e7-207c-44a3-9083-a3c376d78018,.d39a97b7-553a-4520-84a1-a342fd910831{stroke:#000;stroke-linecap:round;}.\32 b0f5894-3132-4251-8cd0-3e4b448ea439,.\34 bbb43e7-207c-44a3-9083-a3c376d78018,.d39a97b7-553a-4520-84a1-a342fd910831{stroke-miterlimit:10;}.d39a97b7-553a-4520-84a1-a342fd910831{stroke-width:36px;}.\31 ccee8d6-57b2-4a41-b66a-609ca470fbce{stroke-linejoin:round;stroke-width:24px;}.\34 bbb43e7-207c-44a3-9083-a3c376d78018,.\38 4adf236-e3f5-42ce-b34c-a41683c6c7fa{fill:#fff;}.\32 b0f5894-3132-4251-8cd0-3e4b448ea439,.\34 bbb43e7-207c-44a3-9083-a3c376d78018{stroke-width:6px;}</style></defs><title>2020-kleurboek-print</title><g id="99ffde57-bc83-40b1-9344-d351a96e23cf" data-name="Roomba"><g id="d7fa0de7-28e4-4dad-b485-7e33eba5a013" data-name="drawing"><path d="M306.14,120.93a191,191,0,1,1-74.59,15,190.37,190.37,0,0,1,74.59-15m0-12c-112.47,0-203.64,91.17-203.64,203.64s91.17,203.64,203.64,203.64S509.78,425,509.78,312.57,418.61,108.93,306.14,108.93Z"/><path class="d39a97b7-553a-4520-84a1-a342fd910831" d="M102.5,312.5c0-112.47,91.17-203.64,203.64-203.64S509.78,200,509.78,312.5"/><path class="1ccee8d6-57b2-4a41-b66a-609ca470fbce" d="M442.06,245.35A152.38,152.38,0,0,0,306.14,162h0a152.39,152.39,0,0,0-135.92,83.4"/><circle cx="306.14" cy="312.57" r="96.63"/><circle class="84adf236-e3f5-42ce-b34c-a41683c6c7fa" cx="306.14" cy="312.57" r="34.41"/><circle cx="306.14" cy="488.6" r="17.65"/><path class="84adf236-e3f5-42ce-b34c-a41683c6c7fa" d="M306.14,474A14.65,14.65,0,1,1,291.5,488.6,14.66,14.66,0,0,1,306.14,474m0-6a20.65,20.65,0,1,0,20.65,20.65A20.64,20.64,0,0,0,306.14,468Z"/><line class="2b0f5894-3132-4251-8cd0-3e4b448ea439" x1="257.31" y1="313.98" x2="355.72" y2="313.98"/><circle class="4bbb43e7-207c-44a3-9083-a3c376d78018" cx="306.14" cy="312.57" r="22.02"/><circle cx="306.52" cy="117.33" r="21.26"/></g></g></svg>