<svg id="bcffcaf1-d9f0-46a6-8503-6639e1fc3341" data-name="Ring" xmlns="http://www.w3.org/2000/svg" viewBox="0 0 612.28 612.29"><defs><style>.\35 0dba0dd-62a3-49cd-a6d4-f78c9016af53,.e360ba4a-bdd3-49ca-9cdd-1ce20387afdc{fill:#fff;}.\35 0dba0dd-62a3-49cd-a6d4-f78c9016af53{stroke:#000;stroke-miterlimit:10;stroke-width:8px;}</style></defs><title>2020-kleurboek-print</title><rect class="e360ba4a-bdd3-49ca-9cdd-1ce20387afdc" x="164.78" y="220.64" width="285.82" height="106.52"/><path d="M446.6,224.64v98.53H168.78V224.64H446.6m8-8H160.78V331.17H454.6V216.64Z"/><path class="50dba0dd-62a3-49cd-a6d4-f78c9016af53" d="M149.84,194.52a17,17,0,0,1,10.51-12.67,70.93,70.93,0,0,1,25.15-5,67.62,67.62,0,0,1,25,4.4,17,17,0,0,1,10.42,12.57l5.18,26.72H144.94Z"/><path class="e360ba4a-bdd3-49ca-9cdd-1ce20387afdc" d="M142.88,439.46a50.58,50.58,0,0,1-50.5-50.56c0-1,0-2.07.12-3.34l.12-1.61v-.09c1.69-13.67,17.05-109.77,18-115.62a75.54,75.54,0,1,1,139.81,46q-.8,1.31-1.65,2.58l-65,101.92-.11,0A50.25,50.25,0,0,1,142.88,439.46Z"/><path d="M185.86,203.32A71.66,71.66,0,0,1,247,312.15h0c-.5.83-1,1.64-1.56,2.45L182.08,414h0A46.49,46.49,0,0,1,96.38,388.9c0-1,0-2.06.11-3.08l.11-1.47c1.71-13.89,18-115.62,18-115.62a71.59,71.59,0,0,1,71.27-65.41m0-8a79.57,79.57,0,0,0-79.21,72.42c-1.13,7.08-16.31,102-18,115.63l0,.18v.19l-.12,1.48v.08c-.09,1.35-.13,2.49-.13,3.6a54.49,54.49,0,0,0,96.81,34.39l.35.11,3.28-5.13L252.16,319c.61-.93,1.17-1.8,1.69-2.66a79.67,79.67,0,0,0-68-121Z"/><ellipse class="e360ba4a-bdd3-49ca-9cdd-1ce20387afdc" cx="186.15" cy="273.91" rx="74.54" ry="74.64"/><path d="M186.15,202.27a71.64,71.64,0,1,1-71.54,71.64,71.59,71.59,0,0,1,71.54-71.64m0-6a77.64,77.64,0,1,0,77.54,77.64,77.68,77.68,0,0,0-77.54-77.64Z"/><path class="50dba0dd-62a3-49cd-a6d4-f78c9016af53" d="M462.44,194.52a16.94,16.94,0,0,0-10.5-12.67,71,71,0,0,0-25.16-5,67.66,67.66,0,0,0-25,4.4A17,17,0,0,0,391.4,193.8l-5.17,26.72h81.11Z"/><path class="e360ba4a-bdd3-49ca-9cdd-1ce20387afdc" d="M469.4,439.46a50.27,50.27,0,0,1-40.79-20.76l-.1,0-1.68-2.61-63.37-99.37c-.52-.79-1.07-1.65-1.61-2.52a75.57,75.57,0,1,1,139.81-46c.94,5.85,16.31,101.95,18,115.62l0,.18.11,1.48c.09,1.31.13,2.36.13,3.38A50.59,50.59,0,0,1,469.4,439.46Z"/><path d="M426.42,203.32a71.58,71.58,0,0,1,71.27,65.41s16.28,101.73,18,115.62l.11,1.47c.07,1,.12,2,.12,3.08A46.49,46.49,0,0,1,430.22,414h0L366.83,314.6c-.53-.81-1.05-1.62-1.56-2.45h0a71.66,71.66,0,0,1,61.15-108.83m0-8a79.66,79.66,0,0,0-68,121c.52.85,1.07,1.72,1.69,2.65l63.33,99.31,3.27,5.13.36-.11a54.49,54.49,0,0,0,96.82-34.39c0-1.11,0-2.25-.13-3.6v-.08l-.11-1.48,0-.19,0-.18c-1.68-13.65-16.85-108.55-18-115.63a79.57,79.57,0,0,0-79.21-72.42Z"/><ellipse class="e360ba4a-bdd3-49ca-9cdd-1ce20387afdc" cx="426.14" cy="273.91" rx="74.54" ry="74.64"/><path d="M426.14,202.27a71.64,71.64,0,1,1-71.54,71.64,71.58,71.58,0,0,1,71.54-71.64m0-6a77.64,77.64,0,1,0,77.53,77.64,77.68,77.68,0,0,0-77.53-77.64Z"/><path class="e360ba4a-bdd3-49ca-9cdd-1ce20387afdc" d="M280.54,305.66a6,6,0,0,1,0-12h12a6,6,0,0,1,0,12Z"/><path d="M292.52,296.66a3,3,0,0,1,3,3v0a3,3,0,0,1-3,3h-12a3,3,0,0,1-3-3v0a3,3,0,0,1,3-3h12m0-6h-12a9,9,0,0,0,0,18h12a9,9,0,0,0,0-18Z"/><path class="e360ba4a-bdd3-49ca-9cdd-1ce20387afdc" d="M319.76,305.66a6,6,0,0,1,0-12h12a6,6,0,0,1,0,12Z"/><path d="M331.75,296.66a3,3,0,0,1,3,3v0a3,3,0,0,1-3,3h-12a3,3,0,0,1-3-3v0a3,3,0,0,1,3-3h12m0-6h-12a9,9,0,0,0,0,18h12a9,9,0,0,0,0-18Z"/><path d="M392.12,261.92a12,12,0,1,1-12,12,12,12,0,0,1,12-12m0-6a18,18,0,1,0,18,18,18,18,0,0,0-18-18Z"/><path d="M460.15,261.92a12,12,0,1,1-12,12,12,12,0,0,1,12-12m0-6a18,18,0,1,0,18,18,18,18,0,0,0-18-18Z"/><path d="M426.14,227.86a12,12,0,1,1-12,12,12,12,0,0,1,12-12m0-6a18,18,0,1,0,18,18,18,18,0,0,0-18-18Z"/><path d="M426.14,296a12,12,0,1,1-12,12,12,12,0,0,1,12-12m0-6a18,18,0,1,0,18,18,18,18,0,0,0-18-18Z"/><path d="M190.43,296a5.45,5.45,0,0,1,5.69,5.14v13.7a5.45,5.45,0,0,1-5.69,5.14h-8.56a5.46,5.46,0,0,1-5.7-5.14v-13.7a5.46,5.46,0,0,1,5.7-5.14h8.56m0-6h-8.56c-6.45,0-11.7,5-11.7,11.14v13.7c0,6.14,5.25,11.14,11.7,11.14h8.56c6.45,0,11.69-5,11.69-11.14v-13.7c0-6.14-5.24-11.14-11.69-11.14Z"/><path d="M190.43,227.86a5.45,5.45,0,0,1,5.69,5.13v13.7a5.45,5.45,0,0,1-5.69,5.14h-8.56a5.46,5.46,0,0,1-5.7-5.14V233c0-2.82,2.57-5.13,5.7-5.13h8.56m0-6h-8.56c-6.45,0-11.7,5-11.7,11.13v13.7c0,6.14,5.25,11.14,11.7,11.14h8.56c6.45,0,11.69-5,11.69-11.14V233c0-6.14-5.24-11.13-11.69-11.13Z"/><path d="M159,263.92a5.45,5.45,0,0,1,5.13,5.7v8.57a5.45,5.45,0,0,1-5.13,5.7H145.29a5.45,5.45,0,0,1-5.13-5.7v-8.57a5.45,5.45,0,0,1,5.13-5.7H159m0-6H145.29c-6.14,0-11.13,5.25-11.13,11.7v8.57c0,6.45,5,11.7,11.13,11.7H159c6.14,0,11.13-5.25,11.13-11.7v-8.57c0-6.45-5-11.7-11.13-11.7Z"/><path d="M224.85,263.92a7.31,7.31,0,0,1,7.29,7.28v5.41a7.3,7.3,0,0,1-7.29,7.28h-9.37a7.29,7.29,0,0,1-7.28-7.28V271.2a7.3,7.3,0,0,1,7.28-7.28h9.37m0-6h-9.37A13.29,13.29,0,0,0,202.2,271.2v5.41a13.29,13.29,0,0,0,13.28,13.28h9.37a13.3,13.3,0,0,0,13.29-13.28V271.2a13.3,13.3,0,0,0-13.29-13.28Z"/></svg>