<svg xmlns="http://www.w3.org/2000/svg" viewBox="0 0 612.28 612.28"><defs><style>.f4a29a5d-1ecc-4896-acb6-c3b1ea29dfa0{fill:none;stroke:#000;stroke-linecap:round;stroke-miterlimit:10;stroke-width:6px;}</style></defs><title>2020-kleurboek-print</title><g id="f18ed2b9-5800-4fd0-96a9-fa341ae3dd03" data-name="Home"><path d="M204.37,96.38a8.94,8.94,0,0,1,2.53.36l205.21,59.68a9,9,0,0,1,6.46,7.79l15.71,164.33a6.07,6.07,0,0,0,.12.84c.91,4.78,9.46,50.65,6.54,79.49-2.88,28.36-23,56.73-25.73,60.5a9.33,9.33,0,0,1-.64.77l-13.82,15.05a22.11,22.11,0,0,1-13.85,7c-14,1.56-38.26,5.38-78.39,5.38h-.08a648.86,648.86,0,0,1-85.27-5.19A21.77,21.77,0,0,1,210,485.72l-14.6-15.55a9.82,9.82,0,0,1-.71-.86c-2.63-3.62-19-27.32-23-62.21-3.33-28.63,3.39-76.33,3.94-80.1,0-.16,0-.32.05-.49l19.76-221.92a9,9,0,0,1,9-8.21m0-9a17.91,17.91,0,0,0-17.93,16.41L166.69,325.72c-.77,5.33-7.4,52.92-4,82.42C167,444.92,184,470,187.42,474.6a18,18,0,0,0,1.43,1.73l14.6,15.55a30.82,30.82,0,0,0,18.6,9.46,656.38,656.38,0,0,0,86.38,5.26h.08A549.65,549.65,0,0,0,381,502c2.62-.32,4.87-.6,6.93-.82a31.06,31.06,0,0,0,19.47-9.89l13.83-15a18.93,18.93,0,0,0,1.28-1.56c4-5.53,24.34-34.65,27.41-64.89,3.05-30-5.65-76.86-6.66-82.1L427.52,163.36a17.91,17.91,0,0,0-12.89-15.58L209.41,88.1a18,18,0,0,0-5-.72Z"/><path class="f4a29a5d-1ecc-4896-acb6-c3b1ea29dfa0" d="M435.36,329.11s-29.24-1.78-38-2.07c-43.5-1.47-130.58-2.12-174.1-1.5-11.81.17-50.25,1.36-50.25,1.36"/><path d="M235.48,499.4l-.1,0-26.77-7.22a.44.44,0,0,1-.27-.19l-15.27-21.33a.48.48,0,0,1,0-.56.5.5,0,0,1,.42-.23h.09c.22,0,21.55,4.31,44.26,7.37,12.06,1.63,32,2.52,56.19,2.52,26.05,0,53.91-1,76.45-2.78,20-1.57,49.23-7.05,49.52-7.11h.09a.51.51,0,0,1,.43.24.51.51,0,0,1,0,.57l-18.77,24.22a.48.48,0,0,1-.35.19l-96.3,8.53Z"/><path d="M420.08,470.35h0m0,0-18.76,24.22-96.26,8.53-69.55-4.2-26.77-7.22-15.26-21.33s21.29,4.28,44.28,7.38c12.88,1.73,33.53,2.52,56.26,2.52,25.58,0,53.78-1,76.48-2.78,20.31-1.59,49.58-7.12,49.58-7.12m0-1H420l-.14,0c-.9.17-29.65,5.55-49.45,7.11-22.52,1.76-50.37,2.77-76.41,2.77-24.15,0-44.09-.89-56.12-2.52-22.7-3.06-44-7.32-44.23-7.36l-.19,0a1,1,0,0,0-.82,1.58l15.27,21.33a1,1,0,0,0,.55.39l26.77,7.21.2,0L305,504.1h.15l96.26-8.53a1,1,0,0,0,.7-.38L420.84,471a1,1,0,0,0,.24-.65,1,1,0,0,0-1-1Zm0,2h0Z"/></g></svg>